<?xml version="1.0" standalone="no"?>
<svg xmlns="http://www.w3.org/2000/svg" width="500.94666704822953" height="270.59510454822953" viewBox="0 0 500.94666704822953 270.59510454822953"><g fill="#333" color="#333" transform="translate(0 0) scale(5.6373981)"><svg width="48.0" height="48.0" x="0.0" y="0.0" viewBox="0 0 48 48"><path fill="currentColor" fill-rule="evenodd" d="M45.5 46.382H32.626c4.9-.912 9.442-3.11 13.756-6.588v5.886c0 .388-.493.702-.882.702zm-43.36 0c-.387 0-.52-.314-.52-.702V29.264a22.506 22.506 0 0 0 5.557 9.216c4.243 4.247 9.406 6.88 14.9 7.902H2.14zm0-44.763h11.005c-2.204.909-4.18 2.257-5.968 4.046a22.519 22.519 0 0 0-5.558 9.217V2.321c0-.388.134-.702.521-.702zm43.36 0c.389 0 .882.314.882.702v35.187c-10.786 10.286-27.62 10.2-38.079-.275-4.046-4.052-6.32-9.436-6.32-15.16 0-5.723 2.206-11.109 6.253-15.159 6.642-6.654 17.438-6.654 24.08 0a13.323 13.323 0 0 1 3.92 9.476 13.34 13.34 0 0 1-3.927 9.48c-4.14 4.146-10.877 4.146-15.016 0a8.22 8.22 0 0 1-2.42-5.842c0-2.205.86-4.28 2.419-5.844a6.507 6.507 0 0 1 9.202 0 4.95 4.95 0 0 1 1.459 3.516 4.938 4.938 0 0 1-1.459 3.514 3.876 3.876 0 0 1-5.484 0 2.854 2.854 0 0 1 0-4.049l-1.125-1.246a4.598 4.598 0 0 0-1.35 3.271 4.6 4.6 0 0 0 1.35 3.271 5.475 5.475 0 0 0 7.736 0 6.693 6.693 0 0 0 1.965-4.76 6.693 6.693 0 0 0-1.965-4.761c-3.157-3.163-8.296-3.164-11.455 0a9.956 9.956 0 0 0-2.928 7.087c0 2.68 1.04 5.198 2.928 7.09 4.76 4.766 12.505 4.766 17.265 0a15.075 15.075 0 0 0 4.432-10.727c0-4.053-1.573-7.86-4.432-10.725a18.527 18.527 0 0 0-6.057-4.046H45.5zm2.499.725A2.345 2.345 0 0 0 45.654 0H2.344A2.345 2.345 0 0 0 0 2.344v43.312a2.344 2.344 0 0 0 2.344 2.343h43.312A2.345 2.345 0 0 0 48 45.654V2.344h-.001z"></path></svg></g><path fill="#333" fill-rule="nonzero" d="M0 33.65L0 0.29L12.36 0.29L12.36 4.28L5.06 4.28L5.06 14.26L10.70 14.26L10.70 18.24L5.06 18.24L5.06 29.67L12.56 29.67L12.56 33.65L0 33.65ZM22.95 33.96L22.95 33.96Q22.36 33.96 21.58 33.84Q20.80 33.71 19.97 33.30Q19.14 32.89 18.34 32.14Q17.54 31.39 16.90 30.15Q16.27 28.91 15.88 27.10Q15.49 25.29 15.49 22.79L15.49 22.79L15.49 10.98Q15.49 8.46 15.90 6.67Q16.31 4.88 16.99 3.66Q17.68 2.44 18.56 1.72Q19.45 1.00 20.41 0.62Q21.37 0.23 22.30 0.12Q23.24 0 24.04 0L24.04 0Q26.07 0 27.47 0.56Q28.87 1.11 29.74 2.08Q30.61 3.05 30.99 4.34Q31.37 5.63 31.37 7.07L31.37 7.07Q31.37 8.14 31.24 9.05Q31.11 9.96 30.90 11.05L30.90 11.05L26.86 11.05L26.86 9.47Q26.86 3.98 23.91 3.98L23.91 3.98Q23.11 3.98 22.52 4.26Q21.93 4.53 21.54 5.19Q21.15 5.84 20.97 6.91Q20.78 7.99 20.78 9.59L20.78 9.59L20.78 24.71Q20.78 26.27 20.97 27.30Q21.15 28.34 21.53 28.96Q21.91 29.59 22.49 29.85Q23.07 30.12 23.87 30.12L23.87 30.12Q24.71 30.12 25.31 29.68Q25.92 29.24 26.31 28.48Q26.70 27.71 26.88 26.68Q27.07 25.64 27.07 24.43L27.07 24.43L27.07 20.08L24.47 20.08L24.47 16.76L31.99 16.76L31.99 33.65L28.63 33.65L28.09 30.49Q27.13 32.34 25.89 33.15Q24.65 33.96 22.95 33.96Z" transform="translate(285.596 0) scale(6.732)"></path><path fill="#333" fill-rule="nonzero" d="M0 33.65L0 0.29L5.06 0.29Q6.02 0.29 7.16 0.38Q8.30 0.47 9.44 0.79Q10.59 1.11 11.65 1.78Q12.71 2.44 13.54 3.58Q14.36 4.73 14.85 6.45Q15.35 8.16 15.35 10.63L15.35 10.63L15.35 11.80Q15.35 14.47 14.89 16.38Q14.43 18.28 13.67 19.58Q12.91 20.88 11.90 21.66Q10.90 22.44 9.81 22.84Q8.73 23.24 7.63 23.37Q6.52 23.50 5.55 23.50L5.55 23.50L5.06 23.50L5.06 33.65L0 33.65ZM5.06 19.79L5.31 19.79Q6.68 19.79 7.62 19.38Q8.55 18.98 9.11 18.13Q9.67 17.29 9.91 15.95Q10.16 14.61 10.16 12.73L10.16 12.73L10.16 9.73Q10.16 8.24 9.94 7.16Q9.73 6.07 9.17 5.37Q8.61 4.67 7.68 4.33Q6.74 3.98 5.31 3.98L5.31 3.98L5.06 3.98L5.06 19.79ZM19.18 33.65L19.18 0.29L24.24 0.29L24.24 14.26L30.23 14.26L30.23 0.29L35.29 0.29L35.29 33.65L30.23 33.65L30.23 18.24L24.24 18.24L24.24 33.65L19.18 33.65ZM48.42 33.95L48.42 33.95Q47.62 33.95 46.68 33.82Q45.74 33.69 44.82 33.28Q43.91 32.87 43.06 32.12Q42.21 31.37 41.55 30.14Q40.90 28.91 40.51 27.10Q40.12 25.29 40.12 22.79L40.12 22.79L40.12 10.98Q40.12 8.46 40.52 6.67Q40.92 4.88 41.58 3.66Q42.25 2.44 43.10 1.72Q43.95 1.00 44.87 0.62Q45.80 0.23 46.72 0.12Q47.64 0 48.42 0L48.42 0Q49.16 0 50.07 0.11Q50.98 0.21 51.88 0.58Q52.79 0.94 53.65 1.65Q54.51 2.36 55.18 3.58Q55.84 4.80 56.24 6.61Q56.64 8.42 56.64 10.98L56.64 10.98L56.64 22.79Q56.64 25.27 56.23 27.06Q55.82 28.85 55.16 30.09Q54.49 31.33 53.62 32.08Q52.75 32.83 51.85 33.25Q50.94 33.67 50.04 33.81Q49.14 33.95 48.42 33.95ZM48.42 30.14L48.42 30.14Q49.16 30.14 49.72 29.88Q50.27 29.63 50.63 29.00Q51.00 28.38 51.18 27.35Q51.37 26.33 51.37 24.77L51.37 24.77L51.37 9.59Q51.37 7.99 51.18 6.91Q51.00 5.84 50.63 5.19Q50.27 4.53 49.72 4.26Q49.16 3.98 48.42 3.98L48.42 3.98Q47.66 3.98 47.09 4.26Q46.52 4.53 46.15 5.19Q45.78 5.84 45.60 6.91Q45.41 7.99 45.41 9.59L45.41 9.59L45.41 24.77Q45.41 26.33 45.60 27.35Q45.78 28.38 46.15 29.00Q46.52 29.63 47.09 29.88Q47.66 30.14 48.42 30.14ZM64.51 33.65L64.51 4.28L59.14 4.28L59.14 0.29L74.92 0.29L74.92 4.28L69.57 4.28L69.57 33.65L64.51 33.65ZM85.72 33.95L85.72 33.95Q84.92 33.95 83.98 33.82Q83.05 33.69 82.13 33.28Q81.21 32.87 80.36 32.12Q79.51 31.37 78.86 30.14Q78.20 28.91 77.81 27.10Q77.42 25.29 77.42 22.79L77.42 22.79L77.42 10.98Q77.42 8.46 77.82 6.67Q78.22 4.88 78.89 3.66Q79.55 2.44 80.40 1.72Q81.25 1.00 82.18 0.62Q83.11 0.23 84.02 0.12Q84.94 0 85.72 0L85.72 0Q86.46 0 87.37 0.11Q88.28 0.21 89.19 0.58Q90.10 0.94 90.96 1.65Q91.82 2.36 92.48 3.58Q93.14 4.80 93.54 6.61Q93.95 8.42 93.95 10.98L93.95 10.98L93.95 22.79Q93.95 25.27 93.54 27.06Q93.13 28.85 92.46 30.09Q91.80 31.33 90.93 32.08Q90.06 32.83 89.15 33.25Q88.24 33.67 87.34 33.81Q86.45 33.95 85.72 33.95ZM85.72 30.14L85.72 30.14Q86.46 30.14 87.02 29.88Q87.58 29.63 87.94 29.00Q88.30 28.38 88.49 27.35Q88.67 26.33 88.67 24.77L88.67 24.77L88.67 9.59Q88.67 7.99 88.49 6.91Q88.30 5.84 87.94 5.19Q87.58 4.53 87.02 4.26Q86.46 3.98 85.72 3.98L85.72 3.98Q84.96 3.98 84.39 4.26Q83.83 4.53 83.46 5.19Q83.09 5.84 82.90 6.91Q82.71 7.99 82.71 9.59L82.71 9.59L82.71 24.77Q82.71 26.33 82.90 27.35Q83.09 28.38 83.46 29.00Q83.83 29.63 84.39 29.88Q84.96 30.14 85.72 30.14ZM105.47 33.96L105.47 33.96Q104.88 33.96 104.10 33.84Q103.32 33.71 102.49 33.30Q101.66 32.89 100.86 32.14Q100.06 31.39 99.42 30.15Q98.79 28.91 98.40 27.10Q98.01 25.29 98.01 22.79L98.01 22.79L98.01 10.98Q98.01 8.46 98.42 6.67Q98.83 4.88 99.51 3.66Q100.20 2.44 101.08 1.72Q101.97 1.00 102.93 0.62Q103.89 0.23 104.82 0.12Q105.76 0 106.56 0L106.56 0Q108.59 0 109.99 0.56Q111.39 1.11 112.26 2.08Q113.13 3.05 113.51 4.34Q113.89 5.63 113.89 7.07L113.89 7.07Q113.89 8.14 113.76 9.05Q113.63 9.96 113.42 11.05L113.42 11.05L109.38 11.05L109.38 9.47Q109.38 3.98 106.43 3.98L106.43 3.98Q105.63 3.98 105.04 4.26Q104.45 4.53 104.06 5.19Q103.67 5.84 103.49 6.91Q103.30 7.99 103.30 9.59L103.30 9.59L103.30 24.71Q103.30 26.27 103.49 27.30Q103.67 28.34 104.05 28.96Q104.43 29.59 105.01 29.85Q105.59 30.12 106.39 30.12L106.39 30.12Q107.23 30.12 107.83 29.68Q108.44 29.24 108.83 28.48Q109.22 27.71 109.40 26.68Q109.59 25.64 109.59 24.43L109.59 24.43L109.59 20.08L106.99 20.08L106.99 16.76L114.51 16.76L114.51 33.65L111.15 33.65L110.61 30.49Q109.65 32.34 108.41 33.15Q107.17 33.96 105.47 33.96ZM119.18 33.65L119.18 0.29L124.67 0.29Q125.61 0.29 126.73 0.37Q127.85 0.45 128.97 0.75Q130.10 1.05 131.14 1.66Q132.19 2.27 133.00 3.32Q133.81 4.38 134.30 5.97Q134.79 7.56 134.79 9.82L134.79 9.82L134.79 10.66Q134.79 14.47 133.69 16.87Q132.60 19.26 130.47 20.31L130.47 20.31L135.82 33.65L130.47 33.65L126.04 21.17L124.14 21.17L124.14 33.65L119.18 33.65ZM124.14 17.52L124.90 17.52Q126.23 17.52 127.15 17.23Q128.07 16.93 128.63 16.24Q129.20 15.55 129.45 14.40Q129.71 13.26 129.71 11.58L129.71 11.58L129.71 8.95Q129.71 7.66 129.47 6.72Q129.24 5.78 128.68 5.18Q128.13 4.57 127.21 4.28Q126.29 3.98 124.90 3.98L124.90 3.98L124.14 3.98L124.14 17.52ZM137.17 33.65L143.32 0.29L149.14 0.29L155.31 33.65L150.20 33.65L149.28 27.68L143.18 27.68L142.30 33.65L137.17 33.65ZM143.77 23.87L148.69 23.87L146.35 7.25L146.13 7.25L143.77 23.87ZM158.54 33.65L158.54 0.29L163.59 0.29Q164.55 0.29 165.69 0.38Q166.84 0.47 167.98 0.79Q169.12 1.11 170.19 1.78Q171.25 2.44 172.07 3.58Q172.89 4.73 173.39 6.45Q173.89 8.16 173.89 10.63L173.89 10.63L173.89 11.80Q173.89 14.47 173.43 16.38Q172.97 18.28 172.21 19.58Q171.45 20.88 170.44 21.66Q169.43 22.44 168.35 22.84Q167.27 23.24 166.16 23.37Q165.06 23.50 164.08 23.50L164.08 23.50L163.59 23.50L163.59 33.65L158.54 33.65ZM163.59 19.79L163.85 19.79Q165.21 19.79 166.15 19.38Q167.09 18.98 167.65 18.13Q168.20 17.29 168.45 15.95Q168.69 14.61 168.69 12.73L168.69 12.73L168.69 9.73Q168.69 8.24 168.48 7.16Q168.26 6.07 167.71 5.37Q167.15 4.67 166.21 4.33Q165.27 3.98 163.85 3.98L163.85 3.98L163.59 3.98L163.59 19.79ZM177.71 33.65L177.71 0.29L182.77 0.29L182.77 14.26L188.77 14.26L188.77 0.29L193.83 0.29L193.83 33.65L188.77 33.65L188.77 18.24L182.77 18.24L182.77 33.65L177.71 33.65ZM203.54 33.65L203.54 22.54L196.82 0.29L201.91 0.29L206.00 16.25L206.23 16.25L210.27 0.29L215.35 0.29L208.59 22.54L208.59 33.65L203.54 33.65Z" transform="translate(285.596 236.631) scale(1)"></path></svg>